<svg width="16" height="17" viewBox="0 0 16 17" fill="none" xmlns="http://www.w3.org/2000/svg">
<circle cx="12.1451" cy="4.26664" r="0.96" fill="#111029"/>
<path fill-rule="evenodd" clip-rule="evenodd" d="M4 8.375C4 10.581 5.794 12.375 8 12.375C10.206 12.375 12 10.581 12 8.375C12 6.169 10.206 4.375 8 4.375C5.794 4.375 4 6.169 4 8.375ZM6 8.375C6 7.272 6.897 6.375 8 6.375C9.103 6.375 10 7.272 10 8.375C10 9.478 9.103 10.375 8 10.375C6.897 10.375 6 9.478 6 8.375Z" fill="#111029"/>
<path fill-rule="evenodd" clip-rule="evenodd" d="M4 16.375H12C14.056 16.375 16 14.431 16 12.375V4.375C16 2.319 14.056 0.375 12 0.375H4C1.944 0.375 0 2.319 0 4.375V12.375C0 14.431 1.944 16.375 4 16.375ZM2 4.375C2 3.44 3.065 2.375 4 2.375H12C12.935 2.375 14 3.44 14 4.375V12.375C14 13.31 12.935 14.375 12 14.375H4C3.047 14.375 2 13.328 2 12.375V4.375Z" fill="#111029"/>
</svg>
