<svg width="166" height="40" viewBox="0 0 166 40" fill="none" xmlns="http://www.w3.org/2000/svg">
<path d="M51.98 19.2002C51.98 25.0522 56.264 29.1682 61.892 29.1682C66.232 29.1682 69.76 26.8722 71.076 22.8402H66.568C65.644 24.7442 63.964 25.6682 61.864 25.6682C58.448 25.6682 56.012 23.1482 56.012 19.2002C56.012 15.2242 58.448 12.7322 61.864 12.7322C63.964 12.7322 65.644 13.6562 66.568 15.5322H71.076C69.76 11.5282 66.232 9.20424 61.892 9.20424C56.264 9.20424 51.98 13.3482 51.98 19.2002ZM89.4042 21.2442C89.4042 16.3442 85.9042 13.2362 81.4242 13.2362C76.9442 13.2362 73.4442 16.3442 73.4442 21.2442C73.4442 26.1162 76.8322 29.2522 81.3122 29.2522C85.8202 29.2522 89.4042 26.1162 89.4042 21.2442ZM77.4202 21.2442C77.4202 18.1362 79.2962 16.6522 81.3682 16.6522C83.4402 16.6522 85.3722 18.1362 85.3722 21.2442C85.3722 24.3242 83.3842 25.8362 81.3122 25.8362C79.2122 25.8362 77.4202 24.3242 77.4202 21.2442ZM103.144 29.0002H107.064V19.9002C107.064 15.6162 104.488 13.2642 100.876 13.2642C98.8877 13.2642 97.2077 14.1042 96.1997 15.4202V13.4882H92.2797V29.0002H96.1997V20.4322C96.1997 17.9402 97.5717 16.5962 99.6997 16.5962C101.772 16.5962 103.144 17.9402 103.144 20.4322V29.0002ZM109.139 13.4882L114.851 29.0002H119.611L125.351 13.4882H121.179L117.259 25.3882L113.339 13.4882H109.139ZM131.473 21.2722C131.473 18.2762 132.873 17.3802 135.197 17.3802H136.233V13.2642C134.077 13.2642 132.453 14.3002 131.473 15.8962V13.4882H127.553V29.0002H131.473V21.2722ZM139.489 24.1842C139.489 27.7402 141.477 29.0002 144.445 29.0002H146.909V25.6962H145.089C143.857 25.6962 143.437 25.2482 143.437 24.2122V16.7082H146.909V13.4882H143.437V9.65224H139.489V13.4882H137.641V16.7082H139.489V24.1842ZM161.433 29.0002H165.941L159.697 19.2842L165.829 9.45624H161.405L157.597 16.0082L153.369 9.45624H148.861L155.105 19.1442L148.945 29.0002H153.369L157.205 22.4202L161.433 29.0002Z" fill="#292930"/>
<rect y="0.000244141" width="40" height="40" rx="11.4286" fill="white"/>
<circle cx="12.8571" cy="12.8574" r="5.71429" fill="#5956E9"/>
<circle cx="12.8571" cy="27.143" r="5.71429" fill="#FFDEE4"/>
<circle cx="27.1428" cy="12.8574" r="5.71429" fill="#FAB8C4"/>
<circle cx="27.1428" cy="27.143" r="5.71429" fill="#5956E9"/>
</svg>
