<svg width="1920" height="596" viewBox="0 0 1920 596" fill="none" xmlns="http://www.w3.org/2000/svg">
<path d="M-3.02501 574.157C41.2014 543.02 108.068 534.173 157.773 536.936C205.167 539.437 251.307 549.9 295.452 560.353C314.762 564.693 334.7 569.534 354.398 573.128C436.718 589.269 502.089 587.137 554.153 567.001C613.089 543.915 649.662 499.289 685.146 455.901C688.452 451.686 691.722 447.968 695.028 443.753C730.863 400.118 781.92 348.598 855.623 337.298C877.166 333.929 899.081 334.548 920.329 335.162C938.604 335.511 957.192 336.111 975.299 334.218C1056.1 325.945 1113.46 274.709 1140.63 244.724C1162.74 220.19 1181.01 193.644 1198.53 168.089C1212.68 147.745 1226.87 126.904 1242.97 107.069C1287.6 52.525 1341.44 17.4568 1398.93 4.82209C1436.81 -3.43753 1479.79 0.284682 1513.31 14.9127C1540.4 26.517 1558.4 44.0485 1564.52 64.7522C1573.58 95.1846 1556.93 131.453 1519.46 161.132C1491.51 183.641 1456.34 200.383 1421.86 216.631C1416.01 219.338 1410.81 222.049 1404.96 224.756C1347.33 252.582 1274.9 291.781 1230.23 346.823C1184.83 402.857 1178.32 468.318 1213.87 514.087C1234.22 540.348 1272.06 559.482 1314.9 565.196C1351.46 570.128 1386.85 564.096 1413.93 548.805C1453.5 526.608 1471.49 490.347 1488.74 455.078C1491.49 449.365 1494.59 443.405 1497.34 437.693C1516.77 399.945 1552.79 353.822 1612.16 347.423C1684.27 339.6 1732.62 396.646 1745.62 414.399C1752.27 423.401 1758.54 433.148 1764.52 442.146C1783.36 470.889 1802.82 500.133 1836.33 519.493C1882.31 545.645 1953.3 548.525 2017.44 526.961C2068.97 509.562 2116.21 478.193 2162.28 431.128C2234.67 356.565 2280.33 270.15 2294.59 180.823L2296.58 180.834C2282.64 270.411 2236.95 357.324 2164.24 431.637C2118.13 479.2 2070.23 510.565 2018.7 527.964C1954.2 549.775 1882.23 546.641 1835.59 520.485C1801.42 501.122 1781.99 471.38 1763.16 442.637C1756.85 433.388 1750.9 423.892 1744.25 414.89C1731.57 397.388 1684.16 341.094 1613.06 348.673C1554.36 355.076 1519.36 400.956 1500.32 437.958C1497.57 443.671 1494.81 449.384 1491.4 455.093C1473.8 490.609 1455.46 527.117 1415.54 549.561C1387.75 565.347 1352.05 571.128 1314.82 566.192C1271.32 560.475 1233.16 541.089 1212.19 514.327C1176.33 468.307 1182.59 401.599 1228.35 345.319C1273.36 290.03 1345.8 250.83 1403.77 222.757C1409.63 220.05 1414.82 217.339 1420.68 214.632C1454.8 198.631 1489.98 181.89 1517.93 159.38C1554.38 129.945 1571.31 94.425 1562.21 64.4905C1556.37 44.5354 1538.68 27.2548 1512.26 15.6541C1479.05 1.27677 1437.05 -2.19101 1399.52 5.82148C1342.38 18.2091 1289.21 53.281 1244.62 107.327C1228.51 127.162 1214.33 148.003 1200.18 168.347C1182.3 194.149 1164.35 220.946 1142.24 245.48C1115.06 275.465 1057 327.195 975.188 335.712C956.416 337.601 937.828 337.001 919.554 336.652C898.305 336.038 876.705 335.67 855.512 338.791C782.826 349.849 732.47 400.874 696.322 444.258C693.366 448.226 689.746 452.191 686.44 456.407C650.956 499.794 614.346 544.918 554.744 568.001C502.33 588.384 436.607 590.763 353.308 574.367C333.296 570.522 313.672 565.932 294.048 561.342C249.552 551.136 204.077 540.676 156.683 538.175C98.0168 535.114 15.2054 548.108 -24.5638 595.456L-26.4857 594.449C-19.2815 587.018 -11.449 580.088 -3.02501 574.157Z" fill="#555774"/>
</svg>
