<svg width="1063" height="596" viewBox="0 0 1063 596" fill="none" xmlns="http://www.w3.org/2000/svg">
<path d="M-1237.03 574.467C-1192.8 543.331 -1125.93 534.483 -1076.23 537.246C-1028.83 539.747 -982.694 550.211 -938.549 560.663C-919.239 565.003 -899.301 569.844 -879.603 573.438C-797.283 589.579 -731.912 587.447 -679.848 567.312C-620.912 544.225 -584.339 499.599 -548.855 456.212C-545.549 451.996 -542.279 448.278 -538.973 444.063C-503.138 400.429 -452.081 348.908 -378.378 337.608C-356.835 334.239 -334.92 334.858 -313.672 335.472C-295.397 335.822 -276.809 336.422 -258.702 334.529C-177.904 326.255 -120.545 275.019 -93.3728 245.034C-71.2619 220.501 -52.9948 193.954 -35.4665 168.399C-21.3183 148.055 -7.13316 127.214 8.97385 107.379C53.6007 52.835 107.434 17.7668 164.932 5.13204C202.808 -3.12761 245.787 0.594608 279.308 15.2227C306.399 26.827 324.4 44.3584 330.521 65.0622C339.583 95.4946 322.926 131.763 285.462 161.442C257.512 183.951 222.336 200.693 187.861 216.941C182.005 219.648 176.813 222.359 170.957 225.066C113.334 252.892 40.8947 292.092 -3.76901 347.133C-49.1715 403.167 -55.6771 468.628 -20.1337 514.397C0.216456 540.658 38.0627 559.793 80.8943 565.506C117.462 570.439 152.844 564.407 179.928 549.115C219.5 526.918 237.488 490.657 254.736 455.388C257.488 449.676 260.591 443.716 263.342 438.003C282.77 400.255 318.789 354.132 378.155 347.733C450.269 339.91 498.62 396.956 511.614 414.709C518.268 423.711 524.535 433.458 530.523 442.456C549.359 471.199 568.823 500.443 602.327 519.803C648.305 545.955 719.295 548.835 783.443 527.271C834.971 509.872 882.209 478.503 928.279 431.438C1000.67 356.875 1046.33 270.46 1060.59 181.133L1062.58 181.144C1048.64 270.721 1002.94 357.634 930.238 431.947C884.131 479.51 836.228 510.875 784.699 528.274C720.201 550.085 648.232 546.951 601.589 520.795C567.419 501.432 547.992 471.69 529.156 442.947C522.853 433.698 516.901 424.202 510.247 415.2C497.567 397.698 450.159 341.404 379.06 348.983C320.36 355.386 285.357 401.266 266.317 438.268C263.565 443.981 260.814 449.694 257.397 455.403C239.797 490.919 221.459 527.427 181.535 549.871C153.75 565.657 118.053 571.438 80.8206 566.502C37.3239 560.785 -0.836483 541.399 -21.815 514.637C-57.6726 468.618 -51.4076 401.91 -5.65408 345.629C39.3606 290.34 111.799 251.14 169.774 223.067C175.63 220.36 180.822 217.649 186.678 214.942C220.802 198.941 255.978 182.2 283.928 159.69C320.376 130.255 337.31 94.735 328.212 64.8005C322.368 44.8454 304.681 27.5647 278.255 15.964C245.048 1.58674 203.049 -1.88107 165.523 6.13142C108.377 18.519 55.2084 53.591 10.6184 107.637C-5.48863 127.472 -19.6737 148.313 -33.822 168.657C-51.7013 194.459 -69.6542 221.256 -91.7651 245.79C-118.937 275.775 -176.998 327.505 -258.813 336.022C-277.585 337.911 -296.173 337.312 -314.447 336.962C-335.696 336.348 -357.296 335.98 -378.489 339.102C-451.175 350.159 -501.531 401.185 -537.679 444.568C-540.635 448.537 -544.255 452.501 -547.561 456.717C-583.045 500.104 -619.655 545.228 -679.257 568.311C-731.671 588.694 -797.394 591.073 -880.693 574.678C-900.705 570.832 -920.329 566.242 -939.953 561.652C-984.449 551.446 -1029.92 540.986 -1077.32 538.485C-1135.98 535.424 -1218.8 548.418 -1258.56 595.766L-1260.49 594.76C-1253.28 587.328 -1245.45 580.398 -1237.03 574.467Z" fill="#555774" fill-opacity="0.21"/>
</svg>
