<svg width="1920" height="1301" viewBox="0 0 1920 1301" fill="none" xmlns="http://www.w3.org/2000/svg">
<path d="M1917.85 561.802C1809.38 612.596 1691.36 609.606 1614.87 587.89C1541.77 567.461 1480.27 530.817 1421.95 494.836C1396.16 479.583 1369.97 463.081 1342.66 449.258C1229.89 389.155 1122.35 372.628 1014.53 397.947C892.116 427.219 779.705 508.624 670.534 587.792C660.154 595.529 650.432 602.24 640.052 609.977C530.02 689.548 386.058 780.693 254.112 780.628C215.466 780.746 181.02 772.424 147.637 764.322C118.713 757.73 89.5854 750.513 58.2318 748.653C-81.4671 739.994 -235.206 828.525 -314.908 882.387C-379.926 926.496 -441.193 976.041 -500.08 1023.75C-547.271 1061.67 -595.12 1100.62 -644.844 1136.85C-782.117 1236.37 -910.747 1292.28 -1018.28 1300.2C-1089.03 1305.29 -1153.57 1283.73 -1189.8 1242.44C-1219.35 1209.53 -1227.16 1167.16 -1212.09 1121.99C-1190.03 1055.56 -1119.66 985.214 -1023.8 935.291C-951.838 897.281 -875.213 873.626 -800.31 850.778C-787.648 847.007 -776.051 843.014 -763.39 839.243C-637.387 799.659 -473.91 741.089 -335.979 640.542C-195.668 538.162 -106.477 403.624 -108.497 296.694C-109.587 235.354 -147.343 183.274 -209.249 157.605C-262.037 135.577 -326.11 136.813 -387.996 160.038C-478.242 193.667 -550.744 263.576 -620.868 331.651C-632.158 342.691 -644.31 354.135 -655.6 365.175C-732.205 437.724 -845.526 522.432 -948.552 516.737C-1073.76 509.923 -1082.79 375.347 -1082.3 334.125C-1082.15 313.202 -1080.49 290.848 -1079.28 270.146C-1074.96 204.112 -1071.03 136.831 -1101.55 85.6738C-1143.92 16.3377 -1254.45 -12.4521 -1383.4 11.9699C-1487.07 31.7494 -1600.66 82.0619 -1731.26 165.508C-1937.2 297.902 -2114.46 463.61 -2244.81 645.47L-2248 644.807C-2117.85 462.323 -1939.93 295.587 -1733.79 163.818C-1602.54 79.3442 -1487.88 29.2527 -1384.21 9.47317C-1254.4 -15.3519 -1142.6 14.2831 -1099.17 83.8402C-1067.59 135.218 -1072.17 203.527 -1076.5 269.561C-1077.5 290.887 -1079.37 312.616 -1079.51 333.54C-1080.2 374.138 -1071.79 506.841 -948.503 513.837C-846.54 519.311 -735.144 434.785 -660.058 363.667C-648.767 352.626 -637.477 341.586 -625.123 330.767C-554.139 262.288 -480.775 191.976 -389.668 157.945C-326.06 133.913 -261.785 133.301 -207.933 155.551C-144.964 181.441 -107.004 234.145 -105.509 296.733C-103.286 404.287 -193.59 541.504 -334.762 644.287C-473.554 745.237 -637.031 803.807 -763.894 843.795C-776.556 847.566 -788.153 851.558 -800.814 855.329C-874.856 877.774 -951.481 901.429 -1023.44 939.439C-1117.38 989.18 -1187.3 1057.88 -1208.7 1123.28C-1223.32 1166.8 -1215.7 1208.54 -1187.22 1241.23C-1151.19 1281.9 -1087.92 1302.61 -1018.02 1297.93C-911.355 1290.41 -783.789 1234.27 -647.174 1135.78C-597.45 1099.55 -549.601 1060.61 -502.41 1022.69C-442.662 974.572 -381.598 924.403 -316.581 880.294C-236.879 826.431 -81.4177 737.094 60.2057 745.572C92.6231 747.652 121.751 754.869 150.675 761.462C184.057 769.563 218.301 777.261 256.086 777.546C386.107 777.793 528.348 687.454 638.582 608.507C648.102 601.173 658.685 594.06 669.065 586.323C778.235 507.155 891.304 424.723 1014.78 395.671C1123.47 369.949 1231.86 386.073 1345.91 447.021C1373.42 461.468 1399.41 477.346 1425.4 493.223C1484.57 528.802 1545.01 565.225 1618.11 585.653C1708.63 610.867 1857.24 610.32 1978.06 524.26L1979.94 526.978C1959.43 540.177 1938.51 552.127 1917.85 561.802Z" fill="#555774"/>
</svg>
