<svg width="1920" height="1485" viewBox="0 0 1920 1485" fill="none" xmlns="http://www.w3.org/2000/svg">
<path d="M2635.74 1041.72C2530.49 1084.22 2412.47 1065.69 2334.79 1031.68C2260.57 999.552 2196.96 950.884 2136.57 903.364C2109.9 883.082 2082.76 861.359 2054.66 842.472C1938.44 761.116 1830.08 728.883 1723.94 743.139C1603.47 759.911 1496.13 835.935 1391.88 909.889C1381.98 917.154 1372.68 923.361 1362.78 930.627C1257.7 1004.92 1119.44 1087.7 987.69 1070.63C949.109 1065.78 914.215 1052.09 880.396 1038.78C851.119 1027.72 821.602 1015.95 790.184 1009.84C650.177 982.209 501.995 1060.83 425.653 1110.45C363.387 1151.11 305.193 1198.3 249.264 1243.76C204.425 1279.84 158.991 1316.98 111.521 1350.85C-19.5587 1443.81 -144.631 1489.41 -251.52 1484.35C-321.864 1480.89 -387.6 1448.6 -426.261 1398.03C-457.738 1357.63 -468.092 1309.52 -455.756 1261.23C-437.728 1190.22 -371.69 1121.07 -278.976 1077.92C-209.412 1044.93 -134.326 1028.51 -60.911 1012.75C-48.4959 1010.19 -37.1562 1007.25 -24.741 1004.69C98.6901 976.912 258.396 932.857 390.071 838.839C524.013 743.09 604.978 604.999 596.53 485.85C591.754 417.51 550.923 354.741 487.567 318.224C433.535 286.93 369.634 280.047 309.239 297.896C221.153 323.656 152.964 392.04 87.0409 458.693C76.4315 469.513 64.9866 480.671 54.3771 491.491C-17.7483 562.282 -125.804 641.86 -229.016 622.252C-354.447 598.543 -371.548 447.753 -373.538 401.984C-374.653 378.739 -374.338 354.1 -374.378 331.238C-374.027 258.378 -374.156 184.077 -407.699 123.267C-454.177 40.7166 -566.273 -5.53597 -693.555 5.00124C-795.883 13.6334 -906.274 54.9356 -1031.65 130.886C-1229.32 251.548 -1396.34 412.947 -1515.56 598.348L-1518.79 597.199C-1399.81 411.079 -1232.19 248.622 -1034.28 128.68C-908.309 51.6722 -796.843 10.7529 -694.516 2.12073C-566.398 -8.75377 -452.987 38.6018 -405.433 121.535C-370.815 182.728 -371.281 258.086 -371.632 330.947C-371.352 354.529 -371.907 378.448 -370.792 401.692C-369.042 446.741 -352.662 595.37 -229.141 619.035C-127.004 638.26 -20.8595 558.636 49.8353 489.239C60.4448 478.419 71.0542 467.599 82.7391 457.162C149.497 390.172 218.522 321.45 307.443 295.352C369.509 276.83 433.65 284.432 488.758 316.109C553.189 353.009 594.26 416.499 599.516 486.278C608.204 606.148 526.289 747.074 391.512 843.16C259.001 937.515 99.2953 981.57 -24.9711 1009.68C-37.3863 1012.24 -48.7261 1015.19 -61.1411 1017.75C-133.721 1033.16 -208.807 1049.59 -278.371 1082.58C-369.174 1125.78 -434.857 1193.15 -452.29 1263.1C-464.27 1309.61 -454.157 1357 -423.755 1397.02C-385.334 1446.87 -320.913 1478.06 -251.405 1481.86C-145.351 1487.24 -21.3544 1441.27 109.13 1349.36C156.6 1315.49 202.034 1278.35 246.873 1242.27C303.637 1196.48 361.591 1148.57 423.857 1107.9C500.199 1058.29 650.052 978.992 791.97 1006.67C824.463 1013.16 853.981 1024.93 883.257 1035.99C917.076 1049.3 951.73 1062.27 989.476 1067.46C1119.31 1084.49 1255.91 1002.37 1361.23 928.803C1370.29 921.876 1380.43 915.331 1390.33 908.066C1494.57 834.112 1602.51 757.031 1724.05 740.641C1831.03 726.048 1940.23 757.943 2057.76 840.403C2086.1 860.01 2113.01 881.013 2139.91 902.015C2201.14 949.197 2263.68 997.482 2337.89 1029.61C2429.79 1069.31 2578.14 1087.85 2693.6 1007.74L2695.64 1011C2675.96 1023.03 2655.79 1033.63 2635.74 1041.72Z" fill="#F8CDBF" fill-opacity="0.3"/>
</svg>
